<?xml version="1.0" standalone="no"?>
<!DOCTYPE svg PUBLIC "-//W3C//DTD SVG 20010904//EN"
 "http://www.w3.org/TR/2001/REC-SVG-20010904/DTD/svg10.dtd">
<svg version="1.0" xmlns="http://www.w3.org/2000/svg"
 width="274.000000pt" height="183.000000pt" viewBox="0 0 274.000000 183.000000"
 preserveAspectRatio="xMidYMid meet">

<g transform="translate(0.000000,183.000000) scale(0.100000,-0.100000)"
fill="#000000" stroke="none">
<path d="M758 1663 c-10 -2 -18 -11 -18 -20 0 -12 7 -14 31 -9 17 3 38 6 45 6
8 0 14 7 14 15 0 15 -33 19 -72 8z"/>
<path d="M855 1650 c-3 -5 7 -24 24 -40 35 -36 54 -22 24 18 -22 30 -38 37
-48 22z"/>
<path d="M672 1608 c-11 -18 -18 -36 -16 -40 8 -12 34 -9 34 4 0 6 7 19 16 29
15 17 12 39 -6 39 -4 0 -17 -14 -28 -32z"/>
<path d="M1060 1603 c0 -15 8 -18 42 -17 59 2 59 28 1 32 -36 3 -43 0 -43 -15z"/>
<path d="M760 1603 c-28 -10 -50 -36 -50 -59 0 -17 4 -21 20 -17 11 3 20 14
20 24 0 23 16 25 27 4 12 -20 94 0 86 22 -3 8 -12 12 -19 9 -8 -3 -14 1 -14 9
0 15 -39 19 -70 8z"/>
<path d="M940 1595 c0 -11 12 -15 45 -15 33 0 45 4 45 15 0 11 -12 15 -45 15
-33 0 -45 -4 -45 -15z"/>
<path d="M1170 1595 c0 -10 10 -15 29 -15 16 0 36 -3 45 -6 12 -4 16 0 16 15
0 18 -6 21 -45 21 -33 0 -45 -4 -45 -15z"/>
<path d="M1294 1588 c-9 -14 6 -25 43 -33 29 -6 54 8 40 22 -12 11 -77 20 -83
11z"/>
<path d="M1400 1554 c0 -16 65 -48 80 -39 19 12 10 23 -30 39 -50 20 -50 20
-50 0z"/>
<path d="M980 1553 c-67 -9 -78 -39 -25 -67 25 -14 39 -16 46 -9 8 8 4 15 -11
26 -20 14 -18 15 35 22 36 4 55 11 52 18 -4 13 -42 17 -97 10z"/>
<path d="M1100 1545 c0 -10 10 -15 29 -15 16 0 36 -3 45 -6 12 -4 16 0 16 15
0 18 -6 21 -45 21 -33 0 -45 -4 -45 -15z"/>
<path d="M1220 1536 c0 -14 29 -26 68 -26 33 0 27 27 -9 34 -47 9 -59 7 -59
-8z"/>
<path d="M638 1523 c-21 -8 -38 -21 -38 -29 0 -17 3 -17 45 0 19 8 35 22 35
30 0 9 -1 16 -2 15 -2 0 -20 -7 -40 -16z"/>
<path d="M1330 1511 c0 -14 10 -21 35 -25 47 -9 49 -9 53 3 4 11 -21 25 -60
35 -23 5 -28 3 -28 -13z"/>
<path d="M789 1513 c-9 -2 -22 -15 -29 -29 -11 -20 -11 -27 -1 -37 11 -9 15
-9 19 2 2 7 13 22 23 32 19 19 25 40 12 38 -5 -1 -15 -3 -24 -6z"/>
<path d="M1505 1509 c-4 -6 -5 -12 -4 -13 10 -9 69 -36 79 -36 21 0 9 26 -19
43 -34 20 -47 21 -56 6z"/>
<path d="M847 1503 c-13 -12 -7 -23 24 -38 30 -16 59 -14 59 3 0 4 -16 16 -35
25 -41 19 -39 19 -48 10z"/>
<path d="M528 1469 c-25 -13 -35 -24 -32 -34 5 -13 12 -12 45 7 21 12 39 25
39 29 0 17 -17 16 -52 -2z"/>
<path d="M1440 1475 c0 -22 67 -52 81 -38 8 8 0 17 -29 32 -49 25 -52 25 -52
6z"/>
<path d="M643 1463 c-30 -15 -49 -52 -20 -40 50 21 48 21 36 -7 -9 -19 -9 -30
-2 -37 8 -8 17 0 33 30 18 37 19 43 6 56 -17 18 -13 18 -53 -2z"/>
<path d="M1020 1456 c0 -22 59 -61 72 -48 8 8 2 18 -18 36 -33 28 -54 33 -54
12z"/>
<path d="M1605 1449 c-11 -16 57 -65 75 -54 16 10 12 19 -23 43 -38 25 -43 26
-52 11z"/>
<path d="M945 1439 c-4 -6 -5 -11 -4 -13 30 -22 68 -46 73 -46 15 0 4 34 -16
51 -26 21 -44 24 -53 8z"/>
<path d="M432 1407 c-32 -22 -43 -47 -19 -47 6 1 25 12 42 25 41 34 22 53 -23
22z"/>
<path d="M537 1407 c-25 -15 -34 -26 -28 -35 6 -10 16 -9 44 8 21 12 37 26 37
30 0 19 -18 18 -53 -3z"/>
<path d="M716 1408 c-20 -31 -24 -60 -9 -65 13 -5 56 71 46 81 -11 11 -22 6
-37 -16z"/>
<path d="M1545 1419 c-4 -6 -5 -11 -4 -13 30 -22 68 -46 73 -46 16 0 3 31 -20
49 -30 24 -40 26 -49 10z"/>
<path d="M1114 1386 c-7 -19 30 -66 53 -66 22 0 15 25 -17 55 -26 25 -30 26
-36 11z"/>
<path d="M1695 1380 c-4 -6 8 -24 25 -41 23 -24 34 -29 43 -20 8 8 4 19 -18
41 -31 32 -40 36 -50 20z"/>
<path d="M1037 1373 c-9 -9 43 -63 60 -63 20 0 15 24 -10 48 -24 23 -39 27
-50 15z"/>
<path d="M340 1325 c-28 -29 -31 -35 -17 -41 18 -7 67 32 67 53 0 25 -18 21
-50 -12z"/>
<path d="M435 1335 c-22 -19 -27 -27 -18 -36 9 -9 19 -6 42 12 31 25 40 49 19
49 -7 -1 -26 -12 -43 -25z"/>
<path d="M621 1338 c-22 -59 -23 -68 -6 -68 17 0 49 65 40 80 -10 17 -25 11
-34 -12z"/>
<path d="M1637 1353 c-9 -9 43 -63 60 -63 22 0 15 27 -13 49 -29 22 -37 25
-47 14z"/>
<path d="M672 1309 c-20 -53 -22 -68 -12 -74 14 -9 16 -7 34 37 14 31 14 38 1
48 -12 10 -16 8 -23 -11z"/>
<path d="M1186 1302 c-3 -5 8 -24 24 -43 21 -25 31 -31 40 -23 8 8 4 19 -15
43 -27 32 -40 38 -49 23z"/>
<path d="M1782 1297 c-14 -17 37 -80 56 -69 9 7 5 17 -17 45 -22 28 -31 34
-39 24z"/>
<path d="M1117 1293 c-3 -5 8 -24 24 -43 22 -26 32 -31 41 -22 9 9 5 19 -17
42 -29 31 -40 36 -48 23z"/>
<path d="M356 1255 c-23 -30 -25 -36 -11 -41 15 -6 60 39 60 60 0 23 -24 14
-49 -19z"/>
<path d="M1716 1272 c-2 -4 9 -23 24 -42 21 -26 32 -32 40 -24 8 8 4 19 -15
43 -27 31 -40 38 -49 23z"/>
<path d="M271 1241 c-22 -30 -28 -61 -12 -61 11 0 51 54 51 68 0 24 -20 20
-39 -7z"/>
<path d="M581 1219 c-15 -43 -14 -59 3 -59 16 0 41 64 31 80 -11 18 -23 11
-34 -21z"/>
<path d="M1262 1213 c-9 -3 -7 -15 10 -44 22 -39 32 -47 43 -30 4 7 -32 84
-38 80 -1 0 -8 -3 -15 -6z"/>
<path d="M631 1179 c-15 -43 -14 -59 4 -59 12 0 35 54 35 83 0 21 -30 3 -39
-24z"/>
<path d="M1195 1200 c-10 -16 34 -80 51 -73 12 4 10 12 -8 44 -22 40 -32 47
-43 29z"/>
<path d="M1847 1204 c-3 -4 3 -24 13 -45 14 -26 25 -36 35 -33 12 5 11 12 -5
45 -20 38 -30 46 -43 33z"/>
<path d="M287 1155 c-21 -43 -21 -45 -3 -45 13 0 56 57 56 74 0 3 -8 6 -18 6
-11 0 -25 -14 -35 -35z"/>
<path d="M1793 1183 c-9 -3 -7 -15 10 -44 23 -40 31 -46 42 -29 5 8 -31 83
-38 79 -1 0 -8 -3 -14 -6z"/>
<path d="M212 1143 c-5 -16 -13 -36 -17 -45 -5 -14 -2 -18 12 -18 20 0 50 61
38 80 -11 17 -23 11 -33 -17z"/>
<path d="M560 1115 c-13 -33 -10 -71 5 -68 16 3 29 73 17 85 -8 8 -14 3 -22
-17z"/>
<path d="M1322 1111 c-11 -6 -10 -15 4 -44 10 -21 24 -37 31 -37 17 0 16 18
-5 57 -12 22 -21 30 -30 24z"/>
<path d="M1255 1101 c-6 -11 25 -81 36 -81 18 0 18 21 2 54 -17 36 -27 44 -38
27z"/>
<path d="M1905 1100 c-7 -11 21 -80 33 -80 20 0 20 14 1 51 -21 41 -24 45 -34
29z"/>
<path d="M610 1086 c0 -7 -3 -28 -6 -45 -5 -24 -3 -31 9 -31 18 0 27 21 27 61
0 19 -5 29 -15 29 -8 0 -15 -6 -15 -14z"/>
<path d="M241 1059 c-15 -42 -14 -59 2 -59 15 0 49 75 39 84 -14 14 -31 3 -41
-25z"/>
<path d="M1852 1081 c-11 -6 -10 -15 4 -44 10 -21 24 -37 31 -37 17 0 16 18
-5 57 -12 22 -21 30 -30 24z"/>
<path d="M171 1029 c-15 -43 -14 -59 4 -59 14 0 38 66 29 82 -10 16 -22 8 -33
-23z"/>
<path d="M540 975 c0 -33 4 -45 15 -45 11 0 15 12 15 45 0 33 -4 45 -15 45
-11 0 -15 -12 -15 -45z"/>
<path d="M1312 1002 c-17 -11 12 -82 33 -82 18 0 18 5 -3 52 -12 26 -21 35
-30 30z"/>
<path d="M1367 1003 c-2 -5 3 -25 12 -45 11 -27 20 -35 29 -29 11 6 10 15 -4
44 -17 36 -28 45 -37 30z"/>
<path d="M1946 992 c-9 -15 17 -82 31 -82 16 0 17 17 2 59 -11 31 -23 39 -33
23z"/>
<path d="M216 964 c-12 -31 -7 -74 9 -74 8 0 15 6 15 14 0 7 3 28 6 45 5 24 3
31 -9 31 -8 0 -18 -7 -21 -16z"/>
<path d="M597 973 c-4 -3 -7 -24 -7 -45 0 -27 4 -38 15 -38 8 0 15 6 15 14 0
7 3 28 6 45 5 23 3 31 -8 31 -8 0 -18 -3 -21 -7z"/>
<path d="M1896 972 c-10 -16 5 -73 21 -79 21 -8 24 1 12 38 -14 41 -25 54 -33
41z"/>
<path d="M147 903 c-7 -41 8 -68 23 -43 5 8 10 30 10 48 0 46 -26 42 -33 -5z"/>
<path d="M530 855 c0 -33 4 -45 15 -45 11 0 15 12 15 45 0 33 -4 45 -15 45
-11 0 -15 -12 -15 -45z"/>
<path d="M1354 894 c-17 -7 14 -84 33 -84 10 0 12 6 7 23 -11 37 -23 67 -26
66 -2 0 -8 -3 -14 -5z"/>
<path d="M1416 856 c10 -30 20 -43 29 -40 19 8 -6 78 -28 82 -15 3 -15 -1 -1
-42z"/>
<path d="M1858 869 c-25 -13 -35 -24 -32 -34 5 -12 12 -11 45 5 26 14 37 25
33 35 -4 8 -7 15 -8 15 0 -1 -18 -10 -38 -21z"/>
<path d="M1980 877 c0 -19 68 -43 81 -30 13 13 -8 29 -48 38 -26 5 -33 3 -33
-8z"/>
<path d="M590 825 c0 -33 4 -45 15 -45 11 0 15 12 15 45 0 33 -4 45 -15 45
-11 0 -15 -12 -15 -45z"/>
<path d="M200 815 c0 -33 4 -45 15 -45 11 0 15 12 15 45 0 33 -4 45 -15 45
-11 0 -15 -12 -15 -45z"/>
<path d="M2090 846 c0 -18 6 -22 53 -30 29 -5 37 -4 37 8 0 9 -15 19 -37 25
-49 14 -53 14 -53 -3z"/>
<path d="M1898 824 c-23 -12 -40 -44 -23 -44 16 0 75 36 72 44 -5 16 -20 16
-49 0z"/>
<path d="M140 785 c0 -33 4 -45 15 -45 11 0 15 12 15 45 0 33 -4 45 -15 45
-11 0 -15 -12 -15 -45z"/>
<path d="M1748 818 c-17 -6 -28 -17 -28 -28 0 -18 2 -18 40 -2 63 27 52 54
-12 30z"/>
<path d="M1970 817 c0 -10 15 -20 38 -26 48 -14 52 -14 52 3 0 19 -7 23 -53
31 -30 6 -37 4 -37 -8z"/>
<path d="M2200 816 c0 -12 40 -26 76 -26 23 0 16 27 -8 34 -39 10 -68 7 -68
-8z"/>
<path d="M2320 795 c0 -18 67 -32 82 -17 8 8 4 14 -16 22 -38 14 -66 13 -66
-5z"/>
<path d="M2080 786 c0 -9 12 -18 28 -22 15 -3 33 -7 40 -10 12 -3 29 22 21 30
-2 2 -23 7 -46 11 -35 6 -43 4 -43 -9z"/>
<path d="M537 783 c-4 -3 -7 -24 -7 -45 0 -30 4 -38 18 -38 14 0 17 7 14 45
-4 43 -11 53 -25 38z"/>
<path d="M1393 782 c-17 -11 3 -82 23 -82 11 0 13 7 8 28 -13 51 -19 61 -31
54z"/>
<path d="M1440 783 c0 -21 22 -83 29 -83 16 0 18 12 9 50 -6 23 -17 40 -24 40
-8 0 -14 -3 -14 -7z"/>
<path d="M1643 774 c-33 -14 -44 -34 -19 -34 32 0 75 22 69 36 -6 17 -8 17
-50 -2z"/>
<path d="M1793 773 c-56 -28 -39 -49 19 -26 24 10 35 19 31 29 -6 17 -10 17
-50 -3z"/>
<path d="M2430 776 c0 -14 29 -26 68 -26 33 0 27 27 -9 34 -47 9 -59 7 -59 -8z"/>
<path d="M2200 760 c0 -20 68 -36 84 -20 14 14 2 21 -44 30 -34 6 -40 5 -40
-10z"/>
<path d="M2546 755 c-4 -10 6 -18 36 -25 40 -11 40 -11 34 -51 -6 -35 -4 -40
11 -37 21 4 33 46 22 76 -5 13 -24 29 -44 37 -43 19 -51 19 -59 0z"/>
<path d="M205 740 c-11 -18 6 -80 22 -80 12 0 14 7 9 31 -3 17 -6 38 -6 45 0
16 -16 19 -25 4z"/>
<path d="M590 710 c0 -27 5 -43 15 -47 21 -8 22 -5 17 45 -6 57 -32 59 -32 2z"/>
<path d="M1533 738 c-18 -6 -33 -17 -33 -24 0 -17 4 -17 52 -4 26 8 35 15 31
25 -6 17 -6 17 -50 3z"/>
<path d="M2310 735 c0 -8 6 -15 14 -15 7 0 28 -3 45 -6 24 -5 31 -3 31 9 0 15
-28 27 -67 27 -14 0 -23 -6 -23 -15z"/>
<path d="M1678 727 c-29 -11 -35 -22 -18 -32 14 -8 82 23 75 35 -7 12 -21 11
-57 -3z"/>
<path d="M2425 720 c-7 -11 35 -30 65 -30 30 0 33 19 5 30 -34 13 -62 13 -70
0z"/>
<path d="M152 668 c4 -59 28 -63 28 -4 0 35 -4 46 -16 46 -12 0 -14 -9 -12
-42z"/>
<path d="M2542 684 c3 -36 24 -41 47 -13 21 26 13 39 -26 39 -18 0 -22 -5 -21
-26z"/>
<path d="M1568 688 c-27 -9 -34 -19 -23 -30 11 -11 85 14 85 28 0 16 -23 17
-62 2z"/>
<path d="M1343 683 c-14 -3 -23 -12 -23 -23 0 -16 4 -17 41 -6 64 19 49 43
-18 29z"/>
<path d="M542 628 c4 -59 28 -63 28 -4 0 35 -4 46 -16 46 -12 0 -14 -9 -12
-42z"/>
<path d="M1468 656 c-36 -9 -54 -36 -24 -36 22 0 76 21 76 30 0 15 -14 17 -52
6z"/>
<path d="M1213 647 c-30 -7 -43 -15 -43 -27 0 -16 4 -16 60 -1 34 9 60 21 60
28 0 15 -17 15 -77 0z"/>
<path d="M611 631 c-11 -7 -12 -18 -5 -50 6 -28 13 -38 21 -33 9 6 10 21 5 50
-5 32 -10 39 -21 33z"/>
<path d="M2497 612 c-29 -30 -35 -52 -14 -52 16 0 57 42 57 58 0 23 -18 20
-43 -6z"/>
<path d="M223 589 c6 -46 13 -57 27 -43 15 15 0 84 -18 84 -11 0 -13 -9 -9
-41z"/>
<path d="M1343 620 c-13 -5 -23 -16 -23 -24 0 -12 5 -14 25 -6 19 7 25 6 25
-4 0 -13 48 -36 76 -36 27 0 13 29 -16 35 -21 5 -30 12 -28 23 3 20 -26 26
-59 12z"/>
<path d="M2567 602 c-30 -32 -35 -55 -11 -50 25 5 60 56 48 68 -7 7 -19 1 -37
-18z"/>
<path d="M1090 613 c-8 -2 -21 -7 -29 -9 -10 -3 -11 -8 -4 -15 14 -14 83 0 83
17 0 14 -21 17 -50 7z"/>
<path d="M167 594 c-3 -3 -4 -11 -2 -17 2 -7 6 -24 9 -39 4 -16 13 -28 21 -28
15 0 15 12 -2 73 -4 17 -15 22 -26 11z"/>
<path d="M963 583 c-13 -2 -23 -11 -23 -20 0 -12 7 -14 37 -8 44 8 53 13 53
26 0 9 -26 10 -67 2z"/>
<path d="M1240 572 c0 -13 12 -22 37 -30 64 -20 75 7 13 32 -50 20 -50 20 -50
-2z"/>
<path d="M1160 571 c-14 -4 -26 -14 -28 -23 -3 -14 2 -15 37 -6 23 6 41 16 41
24 0 15 -11 16 -50 5z"/>
<path d="M868 557 c-49 -12 -54 -42 -5 -32 44 10 57 18 49 31 -5 7 -20 7 -44
1z"/>
<path d="M555 550 c-4 -6 -4 -24 0 -40 5 -25 3 -30 -12 -30 -26 0 -43 -14 -35
-28 6 -8 17 -9 45 -1 39 11 42 19 31 78 -7 31 -18 39 -29 21z"/>
<path d="M1480 548 c0 -9 17 -20 39 -26 49 -15 51 -15 51 2 0 19 -7 23 -53 31
-29 6 -37 4 -37 -7z"/>
<path d="M1050 543 c-8 -2 -21 -7 -29 -9 -10 -3 -11 -8 -4 -15 14 -14 83 0 83
17 0 14 -21 17 -50 7z"/>
<path d="M1346 535 c-6 -16 25 -34 67 -38 29 -3 33 21 5 32 -56 21 -66 22 -72
6z"/>
<path d="M2405 525 c-22 -19 -27 -27 -18 -36 9 -9 19 -6 42 12 31 25 40 49 19
49 -7 -1 -26 -12 -43 -25z"/>
<path d="M743 529 c-22 -6 -30 -14 -27 -24 3 -7 11 -12 17 -10 7 2 24 6 40 9
15 4 27 13 27 21 0 17 -10 17 -57 4z"/>
<path d="M2475 510 c-25 -26 -26 -30 -11 -36 19 -7 66 30 66 53 0 22 -25 15
-55 -17z"/>
<path d="M1597 523 c-13 -13 -7 -21 24 -32 43 -15 59 -14 59 3 0 13 -8 17 -61
32 -8 2 -18 1 -22 -3z"/>
<path d="M245 508 c-8 -22 11 -73 27 -76 14 -3 15 3 7 35 -5 21 -9 41 -9 46 0
12 -20 8 -25 -5z"/>
<path d="M620 495 c0 -23 3 -26 23 -21 12 3 28 6 35 6 6 0 12 7 12 15 0 8 -6
15 -12 15 -7 0 -23 3 -35 6 -20 5 -23 2 -23 -21z"/>
<path d="M923 513 c-13 -2 -23 -11 -23 -20 0 -12 7 -14 37 -8 44 8 53 13 53
26 0 9 -26 10 -67 2z"/>
<path d="M1460 495 c0 -17 44 -38 68 -33 30 6 22 25 -16 36 -50 15 -52 15 -52
-3z"/>
<path d="M855 495 c-5 -2 -22 -6 -37 -9 -24 -6 -41 -36 -20 -36 21 0 82 22 82
30 0 11 -12 18 -25 15z"/>
<path d="M1707 486 c-5 -11 4 -18 35 -26 43 -12 70 -2 46 17 -25 20 -75 25
-81 9z"/>
<path d="M2316 469 c-28 -15 -35 -24 -27 -32 16 -16 83 17 75 38 -4 8 -7 15
-8 15 0 -1 -18 -10 -40 -21z"/>
<path d="M194 449 c3 -17 6 -35 6 -40 0 -5 7 -9 16 -9 13 0 15 7 10 31 -3 17
-6 35 -6 40 0 5 -7 9 -16 9 -13 0 -15 -7 -10 -31z"/>
<path d="M1575 472 c-14 -15 -1 -30 30 -36 19 -4 38 -8 42 -9 4 -1 9 5 11 13
2 11 -10 19 -37 26 -23 6 -43 9 -46 6z"/>
<path d="M710 461 c-14 -4 -26 -14 -28 -23 -3 -13 3 -14 42 -5 30 7 43 14 39
23 -6 15 -14 16 -53 5z"/>
<path d="M1820 457 c0 -15 28 -27 68 -27 13 0 22 6 22 15 0 8 -6 15 -14 15 -7
0 -28 3 -45 6 -24 5 -31 3 -31 -9z"/>
<path d="M2405 453 c-11 -8 -27 -18 -35 -23 -11 -7 -12 -12 -3 -20 8 -9 20 -6
47 13 28 19 34 27 24 35 -9 7 -19 6 -33 -5z"/>
<path d="M418 453 c-28 -4 -40 -33 -14 -33 36 0 76 14 76 26 0 14 -9 15 -62 7z"/>
<path d="M1683 434 c-7 -20 -4 -22 45 -30 34 -5 42 -4 42 9 0 21 -79 41 -87
21z"/>
<path d="M1930 436 c0 -14 29 -26 68 -26 33 0 27 27 -9 34 -47 9 -59 7 -59 -8z"/>
<path d="M345 434 c-5 -1 -22 -5 -37 -8 -16 -4 -28 -13 -28 -22 0 -12 7 -14
33 -9 17 4 37 10 44 14 14 7 3 29 -12 25z"/>
<path d="M588 433 c-28 -4 -36 -17 -18 -28 17 -10 80 6 80 21 0 14 -9 15 -62
7z"/>
<path d="M2193 431 c-24 -4 -30 -10 -24 -20 11 -18 91 -5 91 15 0 15 -13 16
-67 5z"/>
<path d="M2050 415 c0 -11 12 -15 45 -15 33 0 45 4 45 15 0 11 -12 15 -45 15
-33 0 -45 -4 -45 -15z"/>
<path d="M488 407 c-22 -5 -38 -15 -38 -23 0 -17 4 -17 53 -3 35 9 47 23 30
32 -5 2 -25 0 -45 -6z"/>
<path d="M1795 410 c-10 -16 4 -27 46 -34 28 -5 38 -3 42 9 5 10 -2 17 -21 21
-15 3 -34 8 -44 10 -9 3 -19 0 -23 -6z"/>
<path d="M2293 397 c-34 -12 -44 -30 -20 -35 23 -5 67 17 67 33 0 17 -4 18
-47 2z"/>
<path d="M370 381 c-14 -4 -26 -14 -28 -23 -3 -13 3 -14 42 -5 30 7 43 14 39
23 -6 15 -14 16 -53 5z"/>
<path d="M1910 375 c0 -8 6 -15 14 -15 7 0 28 -3 45 -6 24 -5 31 -3 31 9 0 18
-21 27 -61 27 -19 0 -29 -5 -29 -15z"/>
<path d="M224 369 c-10 -17 23 -39 58 -39 35 0 41 35 6 36 -13 0 -30 4 -39 8
-10 4 -20 2 -25 -5z"/>
<path d="M2024 369 c-9 -16 15 -29 54 -29 21 0 32 5 32 14 0 23 -73 36 -86 15z"/>
<path d="M2178 373 c-47 -5 -54 -33 -9 -33 39 0 61 9 61 26 0 8 -3 13 -7 12
-5 -1 -25 -3 -45 -5z"/>
</g>
</svg>
